<svg id="Layer_1" data-name="Layer 1" xmlns="http://www.w3.org/2000/svg" width="260" height="260">
<style>
	#logo { fill: #000 }
	@media (prefers-color-scheme: dark) {
		#logo { fill: #FFF; }
	}
  
</style>
	<g id="logo">
		<path id="urban-dc" d="M88.30003,115.05002h-5.40002v-20.20001c3.79999-1.8,10-2.8,16.09998-2.8v-13.2c-6.40002-.10001-12.40002,3.10001-15.90002,8.5h-.19995v-7.5h-19.5v11.60001h5.20001v23.60001h-5.20001v11.60001h24.90002v-11.60001Zm-57.60004,19.19998H.59999v11.60001H5.8v40.5H.59999v11.60001H30.7c22.90002,0,29.5-14.20001,29.5-32.39999s-6.59998-31.30002-29.5-31.30002h0Zm0,52.20001h-9.70001v-40.5h9.70001c11.09998,0,13.40002,7.60001,13.40002,19.79999s-2.29999,20.70001-13.40002,20.70001h0ZM5.8,104.15001c0,16.8,10.79999,23.49998,26.19998,23.49998s26.20001-6.70001,26.20001-23.5v-29.7h5.09998v-11.59999h-25.39996v11.60001h5.20001v29.7c0,6.7-2.59998,11.8-10.90002,11.8-8.60001,0-11.10001-5.20001-11.10001-11.8v-29.7h5.20001v-11.60001H.7v11.60001H5.90001l-.10001,29.7Zm59.89999,61.59999c0,18.29999,6.40002,33.29999,29.59998,33.29999,8.09998,0,16.20001-1.20001,23.90002-3.70001v-16h-11.90002v6.89999c-3.59998,.70001-7.20001,1.10001-10.79999,1-10.59998,0-14.79999-8.5-14.79999-21.70001,0-12.20001,4.09998-20.70001,14.79999-20.70001,3.59998,0,7.29999,.29999,10.79999,1v6.89999h11.90002v-16c-7.70001-2.39999-15.79999-3.70001-23.90002-3.70001-23.19995,.30008-29.59998,14.50009-29.59998,32.70007h0Zm188.5-50.69998v-20.39999c0-9.5-4.79999-15.89999-14.40002-15.89999-5.70001,0-11.20001,2.5-14.90002,6.89999h-.20001v-5.89999h-19.5v11.60001h5.20001v23.60001h-5.20001v11.60001h23.90002v-11.60001h-4.29999v-21.89999c2.20001-1.2,5.29999-2.7,8.40002-2.7,4.59998,0,6.70001,2.39999,6.70001,7.5v17.09999h-4.29999v11.60001h23.79999v-11.60001l-5.20001,.09998Zm-121.39996-36.20001c-4.90002,0-9.5,2.10001-12.79999,5.60001h-.20001v-23.5h-19.5v11.60001h5.20001v42.39999h-5.20001v11.60001h16.20001l2.5-4.29999h.20001c3.5,3.29999,8.09998,5.20001,12.90002,5.29999,13.40002,0,18.20001-11.20001,18.20001-24.39999s-4.1001-24.30002-17.50006-24.30002Zm-5.80005,37.20001c-2.59998,0-5.09998-.79999-7.20001-2.39999v-20.80002c2.09998-1.5,4.59998-2.3,7.20001-2.3,6.29999,0,8,5.5,8,12.8,0,7.20001-1.69995,12.70001-8,12.70001h0Zm70.20001-21.30002c0-13-7-15.89999-19.5-15.89999-6.90002,.10001-13.70001,.89999-20.40002,2.3v13.7h11.90002v-4c1.70001-.2,3.40002-.39999,5.20001-.39999,5.5,0,8.5,.8,8.5,5.10001v2.5h-8.40002c-8.20001,0-20,2.5-20,15,0,8.39999,5.5,14.39999,13.90002,14.39999,5.40002,.5,10.70001-1.5,14.40002-5.5h.20001v4.70001h19.40002v-11.60001h-5.09998l-.1001-20.30002Zm-14.39996,19.70001c-2.40002,1.60001-5.20001,2.39999-8.09998,2.39999-3,0-6.09998-1.5-6.09998-5.20001,0-4.60001,3.59998-5.3,8.09998-5.3h6.09998v8.10002Zm-57.30005,83.69998h14.40002v-14.29999h-14.40002v14.29999Z"/>
	</g>
</svg>